<svg width="20" height="20" viewBox="0 0 20 20" fill="none" xmlns="http://www.w3.org/2000/svg" class="" data-enter-pip="true"><path fill-rule="evenodd" clip-rule="evenodd" d="M3.33329 4.99992H16.6666V9.99992H18.3333V4.99992C18.3333 4.07944 17.5871 3.33325 16.6666 3.33325H3.33329C2.41282 3.33325 1.66663 4.07944 1.66663 4.99992V13.3333C1.66663 14.2537 2.41282 14.9999 3.33329 14.9999H8.33329V13.3333H3.33329V4.99992ZM9.99996 12.6666C9.99996 12.1143 10.4477 11.6666 11 11.6666H17.3333C17.8856 11.6666 18.3333 12.1143 18.3333 12.6666V17.3333C18.3333 17.8855 17.8856 18.3333 17.3333 18.3333H11C10.4477 18.3333 9.99996 17.8855 9.99996 17.3333V12.6666ZM7.91663 7.60408V8.59492L6.17079 6.84909C6.05829 6.73659 5.90163 6.66659 5.72913 6.66659C5.38413 6.66659 5.10413 6.94575 5.10413 7.29159C5.10413 7.46409 5.17413 7.61992 5.28746 7.73325L7.03246 9.47909H6.04163C5.69663 9.47909 5.41663 9.75825 5.41663 10.1041C5.41663 10.4491 5.69663 10.7291 6.04163 10.7291H8.54163C8.88663 10.7291 9.16663 10.4491 9.16663 10.1041V7.60408C9.16663 7.25825 8.88663 6.97909 8.54163 6.97909C8.19663 6.97909 7.91663 7.25825 7.91663 7.60408Z" fill="white"></path></svg>