<svg width="20" height="20" viewBox="0 0 20 20" fill="#fff" xmlns="http://www.w3.org/2000/svg" class="PrefsButton_module_gearIcon__ee31fc86"><path fill-rule="evenodd" clip-rule="evenodd" d="M9.16668 1.66699C8.2462 1.66699 7.50001 2.41318 7.50001 3.33366V4.72835C7.21484 4.86382 6.94241 5.02175 6.68499 5.19984L5.46953 4.4981C4.68103 4.04285 3.66009 4.31415 3.20034 5.11047L2.36526 6.55686C1.90707 7.35046 2.17605 8.3701 2.96953 8.82822L4.18535 9.53017C4.17298 9.68526 4.16668 9.84206 4.16668 10.0003C4.16668 10.1586 4.17298 10.3154 4.18535 10.4705L2.96953 11.1724C2.17605 11.6306 1.90707 12.6502 2.36526 13.4438L3.20034 14.8902C3.66009 15.6865 4.68103 15.9578 5.46953 15.5026L6.685 14.8008C6.94241 14.9789 7.21484 15.1368 7.50001 15.2723V16.667C7.50001 17.5875 8.2462 18.3337 9.16668 18.3337H10.8333C11.7538 18.3337 12.5 17.5875 12.5 16.667V15.2723C12.7851 15.1369 13.0574 14.979 13.3147 14.801L14.5298 15.5026C15.3183 15.9578 16.3393 15.6865 16.799 14.8902L17.6341 13.4438C18.0923 12.6502 17.8233 11.6306 17.0298 11.1724L15.8146 10.4708C15.827 10.3156 15.8333 10.1587 15.8333 10.0003C15.8333 9.84193 15.827 9.68501 15.8146 9.52981L17.0298 8.82822C17.8233 8.3701 18.0923 7.35046 17.6341 6.55686L16.799 5.11047C16.3393 4.31415 15.3183 4.04285 14.5298 4.4981L13.3147 5.19963C13.0574 5.02162 12.7851 4.86377 12.5 4.72835V3.33366C12.5 2.41318 11.7538 1.66699 10.8333 1.66699H9.16668ZM12.5 10.0003C12.5 11.381 11.3807 12.5003 10 12.5003C8.6193 12.5003 7.50001 11.381 7.50001 10.0003C7.50001 8.61961 8.6193 7.50033 10 7.50033C11.3807 7.50033 12.5 8.61961 12.5 10.0003Z"></path></svg>