<?xml version="1.0" encoding="utf-8"?>
<!-- Svg Vector Icons : http://www.onlinewebfonts.com/icon -->
<!DOCTYPE svg PUBLIC "-//W3C//DTD SVG 1.1//EN" "http://www.w3.org/Graphics/SVG/1.1/DTD/svg11.dtd">
<svg version="1.1" xmlns="http://www.w3.org/2000/svg" xmlns:xlink="http://www.w3.org/1999/xlink" x="0px" y="0px" viewBox="0 0 1000 1000" enable-background="new 0 0 1000 1000" xml:space="preserve" style="fill: rgb(255, 255, 255);">
<metadata> Svg Vector Icons : http://www.onlinewebfonts.com/icon </metadata>
<g><g transform="translate(0.000000,379.000000) scale(0.100000,-0.100000)"><path d="M4734.8,2395c-73.1-25-380.8-257.7-1246.2-936.6L2338.6,554.5l-832.7-9.6L675,535.3l-146.2-73.1C353.9,377.6,248.1,266,159.6,83.3L100-41.7v-1173.1V-2388l61.6-130.8c113.5-240.4,325-411.6,565.4-455.8c55.8-11.6,438.5-19.2,852-19.2h753.9L3477.1-3888c628.9-492.3,1173.1-909.7,1209.7-927c48.1-25,111.5-34.6,221.2-34.6c173.1,1.9,263.5,36.5,369.2,148.1c130.8,134.6,121.2-136.6,121.2,3490.6c0,3150.1-1.9,3288.6-36.6,3363.6c-69.2,151.9-278.9,278.9-461.6,276.9C4861.8,2427.7,4788.7,2412.3,4734.8,2395z"/><path d="M6629.2,1666.1v-401.9l217.3-23.1c613.5-65.4,1123.1-317.3,1563.5-777c913.5-950,907.7-2415.5-9.6-3367.5c-432.7-448.1-950-703.9-1553.9-767.3l-217.3-23.1v-400v-400h82.7c402,0,969.3,148.1,1375.1,353.8c369.3,190.4,617.4,375,911.6,682.7c1202,1255.8,1202,3229,0,4484.9c-594.3,623.1-1332.8,971.2-2177,1028.9l-192.3,13.5V1666.1z"/><path d="M6629.2-1214.8v-1225.1l101.9,13.5c290.4,36.5,527,144.2,719.3,323.1c150,142.3,242.3,280.8,319.2,480.8c53.8,144.2,59.6,176.9,59.6,398.1c1.9,201.9-5.8,261.6-42.3,375c-67.3,201.9-148.1,330.8-309.6,490.4C7263.8-147.5,7046.5-41.7,6731.1-3.2l-101.9,13.5V-1214.8z"/></g></g>
</svg>